<svg xmlns="http://www.w3.org/2000/svg" viewBox="0 0 256 256">
  <rect width="256" height="256" rx="48" fill="#D44F85" />
  <path
    fill="#ffffff"
    d="M82.6 181.4c21 0 35.3-10.5 35.3-28.7 0-13.6-8.4-21.6-26.1-27.8l-9.3-3.2c-11.2-3.8-16-8.1-16-15 0-8.6 7.5-14.5 19.4-14.5 11.2 0 19.4 4.1 26.6 12.8l16.6-15c-9.8-12.8-25.1-20.2-43-20.2-27.2 0-45.1 15.8-45.1 39.9 0 19.8 11.7 30.9 34.3 38.4l9.3 3.2c11.4 3.8 17.4 8.4 17.4 16 0 9.1-8.8 15.5-22.5 15.5-13.9 0-24.2-5.3-32.6-16.6l-17.4 14.7c10.9 16.8 28.9 26.1 49.1 26.1zm109.4.6c27.9 0 46.6-15.8 46.6-39.9 0-17.9-10.5-29.5-32.2-36.8l-9.8-3.2c-11.9-3.8-17.4-8.6-17.4-15.5 0-8.9 7.9-15 20.2-15 11.2 0 19.8 4.4 27.4 13.1l16.8-15.2c-10.7-13.4-26.9-21-44.7-21-27.4 0-46 15.8-46 39.9 0 19 11.4 30.4 33.1 37.7l9.3 3.2c11.9 3.8 17.6 8.8 17.6 16.2 0 9.6-8.9 15.8-22.7 15.8-13.9 0-24.5-5.6-32.9-17.1l-17.4 14.7c11 17.1 29.3 26.9 49.9 26.9z"
  />
</svg>
